# ProBuilder 5.0.6
# https://unity3d.com/unity/features/worldbuilding/probuilder
# 2022-12-05 1:52:32 AM

mtllib ./PolyShape.mtl
o PolyShape

g PolyShape
v 0 -1.248495 0.7386875
v 0 0.5442219 2.545321
v 0 1.247481 1.809406
v 0 1.250199 -1.840601
v 0 0.5271091 -2.545321
v 0 -1.250199 -0.7475872

vt -0.7386875 1.248495
vt -2.545321 -0.5442219
vt -1.809406 -1.247481
vt 1.840601 -1.250199
vt 2.545321 -0.5271091
vt 0.7475872 1.250199

vn -1 0 0

usemtl ProBuilderDefault
f 6/6/1 4/4/1 5/5/1
f 4/4/1 6/6/1 3/3/1
f 6/6/1 1/1/1 3/3/1
f 2/2/1 3/3/1 1/1/1

